<svg width="30" height="31" viewBox="0 0 30 31" fill="none" xmlns="http://www.w3.org/2000/svg">
<circle cx="15" cy="15.6758" r="14.5" fill="white" stroke="white"/>
<path d="M15.3293 17.9513L15.3292 17.9513C15.2036 18.1348 15.0808 18.1758 15.0005 18.1758H15.0003C14.9214 18.1758 14.7979 18.1346 14.6711 17.9498C14.6711 17.9498 14.6711 17.9498 14.6711 17.9497C14.671 17.9496 14.671 17.9496 14.6709 17.9495L11.6331 13.51L11.6329 13.5097C11.5268 13.3548 11.5055 13.2497 11.5053 13.2124C11.5279 13.2003 11.5901 13.1758 11.7164 13.1758L18.2825 13.1758C18.4099 13.1758 18.4723 13.2007 18.4946 13.2128C18.4946 13.2128 18.4946 13.2129 18.4946 13.2129C18.4946 13.2513 18.4724 13.3602 18.3674 13.5134L18.3673 13.5135L15.3293 17.9513Z" fill="black" stroke="white"/>
</svg>
